<svg width="270" height="45" viewBox="0 0 270 45" fill="none" xmlns="http://www.w3.org/2000/svg">
<path d="M0 20C0 8.9543 8.95431 0 20 0H145V25C145 36.0457 136.046 45 125 45H0V20Z" fill="#0068A3"/>
<path d="M17.695 33V10.18H32.08V14.52H22.84V19.805H30.75V24.145H22.84V33H17.695ZM35.6295 33V15.64H40.7745V33H35.6295ZM38.1845 13.085C37.3212 13.085 36.6212 12.84 36.0845 12.35C35.5478 11.86 35.2795 11.2067 35.2795 10.39C35.2795 9.57333 35.5478 8.92 36.0845 8.43C36.6212 7.94 37.3212 7.695 38.1845 7.695C39.0478 7.695 39.7478 7.94 40.2845 8.43C40.8212 8.92 41.0895 9.57333 41.0895 10.39C41.0895 11.2067 40.8212 11.86 40.2845 12.35C39.7478 12.84 39.0478 13.085 38.1845 13.085ZM45.3023 33V15.64H49.5023L49.8523 17.845H49.9923C50.7157 17.1217 51.5323 16.5033 52.4423 15.99C53.3523 15.4767 54.3907 15.22 55.5573 15.22C57.4707 15.22 58.8473 15.85 59.6873 17.11C60.5273 18.3467 60.9473 20.05 60.9473 22.22V33H55.8023V22.885C55.8023 21.625 55.6273 20.7617 55.2773 20.295C54.9507 19.8283 54.414 19.595 53.6673 19.595C53.014 19.595 52.454 19.7467 51.9873 20.05C51.5207 20.33 51.0073 20.7383 50.4473 21.275V33H45.3023ZM69.7066 33.42C68.6566 33.42 67.735 33.1867 66.9416 32.72C66.1716 32.2533 65.5766 31.6233 65.1566 30.83C64.7366 30.0367 64.5266 29.15 64.5266 28.17C64.5266 26.3033 65.2966 24.8683 66.8366 23.865C68.3766 22.8383 70.8616 22.15 74.2916 21.8C74.2683 21.2867 74.1516 20.855 73.9416 20.505C73.755 20.1317 73.4633 19.8517 73.0666 19.665C72.67 19.455 72.1683 19.35 71.5616 19.35C70.8383 19.35 70.1033 19.4783 69.3566 19.735C68.61 19.9917 67.805 20.365 66.9416 20.855L65.1216 17.495C65.8683 17.0283 66.6383 16.6317 67.4316 16.305C68.225 15.955 69.0416 15.6867 69.8816 15.5C70.745 15.3133 71.6316 15.22 72.5416 15.22C74.035 15.22 75.2833 15.5117 76.2866 16.095C77.3133 16.655 78.095 17.5183 78.6316 18.685C79.1683 19.8283 79.4366 21.2983 79.4366 23.095V33H75.2366L74.8866 31.215H74.7466C74 31.8683 73.2183 32.405 72.4016 32.825C71.585 33.2217 70.6866 33.42 69.7066 33.42ZM71.4216 29.395C72.005 29.395 72.5183 29.2667 72.9616 29.01C73.405 28.7533 73.8483 28.4033 74.2916 27.96V25.02C73.0783 25.1833 72.11 25.3933 71.3866 25.65C70.6866 25.9067 70.185 26.2217 69.8816 26.595C69.6016 26.945 69.4616 27.3417 69.4616 27.785C69.4616 28.3217 69.6366 28.73 69.9866 29.01C70.36 29.2667 70.8383 29.395 71.4216 29.395ZM83.7887 33V15.64H87.9887L88.3387 17.845H88.4787C89.202 17.1217 90.0187 16.5033 90.9287 15.99C91.8387 15.4767 92.877 15.22 94.0437 15.22C95.957 15.22 97.3337 15.85 98.1737 17.11C99.0137 18.3467 99.4337 20.05 99.4337 22.22V33H94.2887V22.885C94.2887 21.625 94.1137 20.7617 93.7637 20.295C93.437 19.8283 92.9003 19.595 92.1537 19.595C91.5003 19.595 90.9403 19.7467 90.4737 20.05C90.007 20.33 89.4937 20.7383 88.9337 21.275V33H83.7887ZM111.483 33.42C109.85 33.42 108.368 33.0583 107.038 32.335C105.731 31.6117 104.693 30.5733 103.923 29.22C103.176 27.8667 102.803 26.2333 102.803 24.32C102.803 22.4067 103.223 20.7733 104.063 19.42C104.903 18.0667 106.011 17.0283 107.388 16.305C108.765 15.5817 110.246 15.22 111.833 15.22C112.906 15.22 113.863 15.395 114.703 15.745C115.566 16.0717 116.301 16.515 116.908 17.075L114.493 20.26C114.19 20.0033 113.84 19.7933 113.443 19.63C113.07 19.4667 112.638 19.385 112.148 19.385C111.331 19.385 110.62 19.5833 110.013 19.98C109.406 20.3767 108.928 20.9483 108.578 21.695C108.228 22.4417 108.053 23.3167 108.053 24.32C108.053 25.3233 108.228 26.1983 108.578 26.945C108.928 27.6917 109.395 28.2633 109.978 28.66C110.585 29.0567 111.261 29.255 112.008 29.255C112.591 29.255 113.14 29.15 113.653 28.94C114.166 28.73 114.645 28.4617 115.088 28.135L117.118 31.285C116.395 31.9383 115.543 32.4633 114.563 32.86C113.583 33.2333 112.556 33.42 111.483 33.42ZM127.003 33.42C125.346 33.42 123.853 33.0583 122.523 32.335C121.193 31.6117 120.143 30.5733 119.373 29.22C118.603 27.8667 118.218 26.2333 118.218 24.32C118.218 22.43 118.603 20.8083 119.373 19.455C120.166 18.1017 121.193 17.0633 122.453 16.34C123.713 15.5933 125.031 15.22 126.408 15.22C128.065 15.22 129.441 15.5933 130.538 16.34C131.635 17.0633 132.451 18.055 132.988 19.315C133.525 20.575 133.793 21.9867 133.793 23.55C133.793 23.9933 133.77 24.4367 133.723 24.88C133.676 25.3 133.63 25.6383 133.583 25.895H122.208L122.138 22.325H129.383C129.383 21.415 129.161 20.6683 128.718 20.085C128.275 19.4783 127.54 19.175 126.513 19.175C125.953 19.175 125.405 19.3267 124.868 19.63C124.331 19.9333 123.888 20.4583 123.538 21.205C123.188 21.9517 123.025 22.99 123.048 24.32C123.071 25.6267 123.305 26.6533 123.748 27.4C124.215 28.1467 124.798 28.6833 125.498 29.01C126.198 29.3133 126.933 29.465 127.703 29.465C128.38 29.465 129.021 29.3717 129.628 29.185C130.258 28.975 130.876 28.695 131.483 28.345L133.163 31.495C132.3 32.1017 131.32 32.58 130.223 32.93C129.126 33.2567 128.053 33.42 127.003 33.42Z" fill="white"/>
<path d="M161.442 33.42C159.482 33.42 157.685 32.9883 156.052 32.125C154.442 31.2383 153.147 29.92 152.167 28.17C151.187 26.42 150.697 24.2733 150.697 21.73C150.697 19.84 150.977 18.16 151.537 16.69C152.12 15.1967 152.914 13.9367 153.917 12.91C154.92 11.8833 156.064 11.1017 157.347 10.565C158.654 10.0283 160.03 9.76 161.477 9.76C162.947 9.76 164.265 10.0517 165.432 10.635C166.599 11.2183 167.567 11.9183 168.337 12.735L165.607 15.85C165.047 15.3133 164.44 14.9167 163.787 14.66C163.134 14.38 162.399 14.24 161.582 14.24C160.579 14.24 159.645 14.5433 158.782 15.15C157.942 15.7333 157.265 16.5733 156.752 17.67C156.239 18.7667 155.982 20.0617 155.982 21.555C155.982 23.1183 156.227 24.46 156.717 25.58C157.207 26.6767 157.884 27.5167 158.747 28.1C159.634 28.6833 160.649 28.975 161.792 28.975C162.679 28.975 163.472 28.7883 164.172 28.415C164.872 28.0417 165.49 27.5983 166.027 27.085L168.617 30.13C167.637 31.2267 166.552 32.055 165.362 32.615C164.172 33.1517 162.865 33.42 161.442 33.42ZM171.733 33V8.465H176.878V14.485L176.633 17.6C177.286 17.0167 178.045 16.48 178.908 15.99C179.795 15.4767 180.821 15.22 181.988 15.22C183.901 15.22 185.278 15.85 186.118 17.11C186.958 18.3467 187.378 20.05 187.378 22.22V33H182.233V22.885C182.233 21.625 182.058 20.7617 181.708 20.295C181.381 19.8283 180.845 19.595 180.098 19.595C179.445 19.595 178.885 19.7467 178.418 20.05C177.951 20.33 177.438 20.7383 176.878 21.275V33H171.733ZM191.728 33V15.64H195.928L196.278 18.685H196.418C197.048 17.5183 197.795 16.655 198.658 16.095C199.545 15.5117 200.443 15.22 201.353 15.22C201.843 15.22 202.251 15.255 202.578 15.325C202.905 15.3717 203.185 15.4533 203.418 15.57L202.438 19.945C202.158 19.875 201.89 19.8283 201.633 19.805C201.376 19.7583 201.061 19.735 200.688 19.735C200.035 19.735 199.346 19.9683 198.623 20.435C197.923 20.9017 197.34 21.73 196.873 22.92V33H191.728ZM212.787 33.42C211.317 33.42 209.94 33.07 208.657 32.37C207.373 31.6467 206.323 30.6083 205.507 29.255C204.713 27.8783 204.317 26.2333 204.317 24.32C204.317 22.4067 204.713 20.7733 205.507 19.42C206.323 18.0433 207.373 17.005 208.657 16.305C209.94 15.5817 211.317 15.22 212.787 15.22C214.233 15.22 215.598 15.5817 216.882 16.305C218.165 17.005 219.203 18.0433 219.997 19.42C220.813 20.7733 221.222 22.4067 221.222 24.32C221.222 26.2333 220.813 27.8783 219.997 29.255C219.203 30.6083 218.165 31.6467 216.882 32.37C215.598 33.07 214.233 33.42 212.787 33.42ZM212.787 29.255C213.487 29.255 214.07 29.0567 214.537 28.66C215.027 28.2633 215.388 27.6917 215.622 26.945C215.855 26.1983 215.972 25.3233 215.972 24.32C215.972 23.3167 215.855 22.4417 215.622 21.695C215.388 20.9483 215.027 20.3767 214.537 19.98C214.07 19.5833 213.487 19.385 212.787 19.385C212.063 19.385 211.468 19.5833 211.002 19.98C210.535 20.3767 210.185 20.9483 209.952 21.695C209.718 22.4417 209.602 23.3167 209.602 24.32C209.602 25.3233 209.718 26.1983 209.952 26.945C210.185 27.6917 210.535 28.2633 211.002 28.66C211.468 29.0567 212.063 29.255 212.787 29.255ZM224.746 33V15.64H228.946L229.296 17.88H229.436C230.136 17.1567 230.894 16.5383 231.711 16.025C232.551 15.4883 233.542 15.22 234.686 15.22C235.922 15.22 236.926 15.4767 237.696 15.99C238.466 16.48 239.061 17.1917 239.481 18.125C240.251 17.3317 241.067 16.655 241.931 16.095C242.794 15.5117 243.797 15.22 244.941 15.22C246.831 15.22 248.207 15.85 249.071 17.11C249.934 18.3467 250.366 20.05 250.366 22.22V33H245.221V22.885C245.221 21.625 245.046 20.7617 244.696 20.295C244.369 19.8283 243.832 19.595 243.086 19.595C242.642 19.595 242.176 19.735 241.686 20.015C241.196 20.2717 240.671 20.6917 240.111 21.275V33H234.966V22.885C234.966 21.625 234.791 20.7617 234.441 20.295C234.114 19.8283 233.577 19.595 232.831 19.595C231.944 19.595 230.964 20.155 229.891 21.275V33H224.746ZM262.525 33.42C260.869 33.42 259.375 33.0583 258.045 32.335C256.715 31.6117 255.665 30.5733 254.895 29.22C254.125 27.8667 253.74 26.2333 253.74 24.32C253.74 22.43 254.125 20.8083 254.895 19.455C255.689 18.1017 256.715 17.0633 257.975 16.34C259.235 15.5933 260.554 15.22 261.93 15.22C263.587 15.22 264.964 15.5933 266.06 16.34C267.157 17.0633 267.974 18.055 268.51 19.315C269.047 20.575 269.315 21.9867 269.315 23.55C269.315 23.9933 269.292 24.4367 269.245 24.88C269.199 25.3 269.152 25.6383 269.105 25.895H257.73L257.66 22.325H264.905C264.905 21.415 264.684 20.6683 264.24 20.085C263.797 19.4783 263.062 19.175 262.035 19.175C261.475 19.175 260.927 19.3267 260.39 19.63C259.854 19.9333 259.41 20.4583 259.06 21.205C258.71 21.9517 258.547 22.99 258.57 24.32C258.594 25.6267 258.827 26.6533 259.27 27.4C259.737 28.1467 260.32 28.6833 261.02 29.01C261.72 29.3133 262.455 29.465 263.225 29.465C263.902 29.465 264.544 29.3717 265.15 29.185C265.78 28.975 266.399 28.695 267.005 28.345L268.685 31.495C267.822 32.1017 266.842 32.58 265.745 32.93C264.649 33.2567 263.575 33.42 262.525 33.42Z" fill="#0068A3"/>
</svg>
