<svg width="371" height="45" viewBox="0 0 371 58" fill="none" xmlns="http://www.w3.org/2000/svg">
<path d="M0 20C0 8.95431 8.95431 0 20 0H194V38C194 49.0457 185.046 58 174 58H0V20Z" fill="#DD9F52"/>
<path d="M54.85 45V12.4H66.6C68.9 12.4 71 12.7167 72.9 13.35C74.8 13.95 76.3167 15 77.45 16.5C78.5833 17.9667 79.15 19.9833 79.15 22.55C79.15 25.05 78.5833 27.0833 77.45 28.65C76.3167 30.2167 74.8 31.3833 72.9 32.15C71 32.8833 68.9 33.25 66.6 33.25H62.2V45H54.85ZM62.2 27.4H66C67.9333 27.4 69.4 27 70.4 26.2C71.4333 25.3667 71.95 24.15 71.95 22.55C71.95 20.95 71.4333 19.8333 70.4 19.2C69.4 18.5667 67.9333 18.25 66 18.25H62.2V27.4ZM72.5 45L65.25 31.35L70.35 26.6L80.75 45H72.5ZM95.5258 45.6C93.1591 45.6 91.0258 45.0833 89.1258 44.05C87.2258 43.0167 85.7258 41.5333 84.6258 39.6C83.5258 37.6667 82.9758 35.3333 82.9758 32.6C82.9758 29.9 83.5258 27.5833 84.6258 25.65C85.7591 23.7167 87.2258 22.2333 89.0258 21.2C90.8258 20.1333 92.7091 19.6 94.6758 19.6C97.0424 19.6 99.0091 20.1333 100.576 21.2C102.142 22.2333 103.309 23.65 104.076 25.45C104.842 27.25 105.226 29.2667 105.226 31.5C105.226 32.1333 105.192 32.7667 105.126 33.4C105.059 34 104.992 34.4833 104.926 34.85H88.6758L88.5758 29.75H98.9258C98.9258 28.45 98.6091 27.3833 97.9758 26.55C97.3424 25.6833 96.2924 25.25 94.8258 25.25C94.0258 25.25 93.2424 25.4667 92.4758 25.9C91.7091 26.3333 91.0758 27.0833 90.5758 28.15C90.0758 29.2167 89.8424 30.7 89.8758 32.6C89.9091 34.4667 90.2424 35.9333 90.8758 37C91.5424 38.0667 92.3758 38.8333 93.3758 39.3C94.3758 39.7333 95.4258 39.95 96.5258 39.95C97.4924 39.95 98.4091 39.8167 99.2758 39.55C100.176 39.25 101.059 38.85 101.926 38.35L104.326 42.85C103.092 43.7167 101.692 44.4 100.126 44.9C98.5591 45.3667 97.0258 45.6 95.5258 45.6ZM119.366 45.55C116.3 45.55 114.1 44.6667 112.766 42.9C111.433 41.1 110.766 38.7833 110.766 35.95V25.95H107.416V20.5L111.216 20.2L112.066 12.6H118.166V20.2H124.116V25.95H118.166V35.85C118.166 37.25 118.45 38.2667 119.016 38.9C119.616 39.5 120.4 39.8 121.366 39.8C121.766 39.8 122.166 39.7667 122.566 39.7C122.966 39.6333 123.35 39.5333 123.716 39.4L124.916 44.55C124.283 44.8167 123.483 45.05 122.516 45.25C121.583 45.45 120.533 45.55 119.366 45.55ZM134.182 45.6C132.682 45.6 131.365 45.2667 130.232 44.6C129.132 43.9333 128.282 43.0333 127.682 41.9C127.082 40.7667 126.782 39.5 126.782 38.1C126.782 35.4333 127.882 33.3833 130.082 31.95C132.282 30.4833 135.832 29.5 140.732 29C140.698 28.2667 140.532 27.65 140.232 27.15C139.965 26.6167 139.548 26.2167 138.982 25.95C138.415 25.65 137.698 25.5 136.832 25.5C135.798 25.5 134.748 25.6833 133.682 26.05C132.615 26.4167 131.465 26.95 130.232 27.65L127.632 22.85C128.698 22.1833 129.798 21.6167 130.932 21.15C132.065 20.65 133.232 20.2667 134.432 20C135.665 19.7333 136.932 19.6 138.232 19.6C140.365 19.6 142.148 20.0167 143.582 20.85C145.048 21.65 146.165 22.8833 146.932 24.55C147.698 26.1833 148.082 28.2833 148.082 30.85V45H142.082L141.582 42.45H141.382C140.315 43.3833 139.198 44.15 138.032 44.75C136.865 45.3167 135.582 45.6 134.182 45.6ZM136.632 39.85C137.465 39.85 138.198 39.6667 138.832 39.3C139.465 38.9333 140.098 38.4333 140.732 37.8V33.6C138.998 33.8333 137.615 34.1333 136.582 34.5C135.582 34.8667 134.865 35.3167 134.432 35.85C134.032 36.35 133.832 36.9167 133.832 37.55C133.832 38.3167 134.082 38.9 134.582 39.3C135.115 39.6667 135.798 39.85 136.632 39.85ZM154.299 45V20.2H161.649V45H154.299ZM157.949 16.55C156.715 16.55 155.715 16.2 154.949 15.5C154.182 14.8 153.799 13.8667 153.799 12.7C153.799 11.5333 154.182 10.6 154.949 9.9C155.715 9.2 156.715 8.85 157.949 8.85C159.182 8.85 160.182 9.2 160.949 9.9C161.715 10.6 162.099 11.5333 162.099 12.7C162.099 13.8667 161.715 14.8 160.949 15.5C160.182 16.2 159.182 16.55 157.949 16.55ZM174.867 45.55C173.201 45.55 171.867 45.2167 170.867 44.55C169.901 43.85 169.201 42.8833 168.767 41.65C168.334 40.3833 168.117 38.9167 168.117 37.25V10H175.467V37.55C175.467 38.35 175.601 38.9 175.867 39.2C176.167 39.4667 176.484 39.6 176.817 39.6C176.951 39.6 177.067 39.6 177.167 39.6C177.301 39.5667 177.467 39.5333 177.667 39.5L178.567 44.95C178.167 45.1167 177.651 45.25 177.017 45.35C176.417 45.4833 175.701 45.55 174.867 45.55Z" fill="white"/>
<path d="M216.843 45.6C214.043 45.6 211.477 44.9833 209.143 43.75C206.843 42.4833 204.993 40.6 203.593 38.1C202.193 35.6 201.493 32.5333 201.493 28.9C201.493 26.2 201.893 23.8 202.693 21.7C203.527 19.5667 204.66 17.7667 206.093 16.3C207.527 14.8333 209.16 13.7167 210.993 12.95C212.86 12.1833 214.827 11.8 216.893 11.8C218.993 11.8 220.877 12.2167 222.543 13.05C224.21 13.8833 225.593 14.8833 226.693 16.05L222.793 20.5C221.993 19.7333 221.127 19.1667 220.193 18.8C219.26 18.4 218.21 18.2 217.043 18.2C215.61 18.2 214.277 18.6333 213.043 19.5C211.843 20.3333 210.877 21.5333 210.143 23.1C209.41 24.6667 209.043 26.5167 209.043 28.65C209.043 30.8833 209.393 32.8 210.093 34.4C210.793 35.9667 211.76 37.1667 212.993 38C214.26 38.8333 215.71 39.25 217.343 39.25C218.61 39.25 219.743 38.9833 220.743 38.45C221.743 37.9167 222.627 37.2833 223.393 36.55L227.093 40.9C225.693 42.4667 224.143 43.65 222.443 44.45C220.743 45.2167 218.877 45.6 216.843 45.6ZM231.545 45V9.95H238.895V18.55L238.545 23C239.478 22.1667 240.562 21.4 241.795 20.7C243.062 19.9667 244.528 19.6 246.195 19.6C248.928 19.6 250.895 20.5 252.095 22.3C253.295 24.0667 253.895 26.5 253.895 29.6V45H246.545V30.55C246.545 28.75 246.295 27.5167 245.795 26.85C245.328 26.1833 244.562 25.85 243.495 25.85C242.562 25.85 241.762 26.0667 241.095 26.5C240.428 26.9 239.695 27.4833 238.895 28.25V45H231.545ZM260.109 45V20.2H266.109L266.609 24.55H266.809C267.709 22.8833 268.776 21.65 270.009 20.85C271.276 20.0167 272.559 19.6 273.859 19.6C274.559 19.6 275.143 19.65 275.609 19.75C276.076 19.8167 276.476 19.9333 276.809 20.1L275.409 26.35C275.009 26.25 274.626 26.1833 274.259 26.15C273.893 26.0833 273.443 26.05 272.909 26.05C271.976 26.05 270.993 26.3833 269.959 27.05C268.959 27.7167 268.126 28.9 267.459 30.6V45H260.109ZM290.193 45.6C288.093 45.6 286.126 45.1 284.293 44.1C282.46 43.0667 280.96 41.5833 279.793 39.65C278.66 37.6833 278.093 35.3333 278.093 32.6C278.093 29.8667 278.66 27.5333 279.793 25.6C280.96 23.6333 282.46 22.15 284.293 21.15C286.126 20.1167 288.093 19.6 290.193 19.6C292.26 19.6 294.21 20.1167 296.043 21.15C297.876 22.15 299.36 23.6333 300.493 25.6C301.66 27.5333 302.243 29.8667 302.243 32.6C302.243 35.3333 301.66 37.6833 300.493 39.65C299.36 41.5833 297.876 43.0667 296.043 44.1C294.21 45.1 292.26 45.6 290.193 45.6ZM290.193 39.65C291.193 39.65 292.026 39.3667 292.693 38.8C293.393 38.2333 293.91 37.4167 294.243 36.35C294.576 35.2833 294.743 34.0333 294.743 32.6C294.743 31.1667 294.576 29.9167 294.243 28.85C293.91 27.7833 293.393 26.9667 292.693 26.4C292.026 25.8333 291.193 25.55 290.193 25.55C289.16 25.55 288.31 25.8333 287.643 26.4C286.976 26.9667 286.476 27.7833 286.143 28.85C285.81 29.9167 285.643 31.1667 285.643 32.6C285.643 34.0333 285.81 35.2833 286.143 36.35C286.476 37.4167 286.976 38.2333 287.643 38.8C288.31 39.3667 289.16 39.65 290.193 39.65ZM307.277 45V20.2H313.277L313.777 23.4H313.977C314.977 22.3667 316.061 21.4833 317.227 20.75C318.427 19.9833 319.844 19.6 321.477 19.6C323.244 19.6 324.677 19.9667 325.777 20.7C326.877 21.4 327.727 22.4167 328.327 23.75C329.427 22.6167 330.594 21.65 331.827 20.85C333.061 20.0167 334.494 19.6 336.127 19.6C338.827 19.6 340.794 20.5 342.027 22.3C343.261 24.0667 343.877 26.5 343.877 29.6V45H336.527V30.55C336.527 28.75 336.277 27.5167 335.777 26.85C335.311 26.1833 334.544 25.85 333.477 25.85C332.844 25.85 332.177 26.05 331.477 26.45C330.777 26.8167 330.027 27.4167 329.227 28.25V45H321.877V30.55C321.877 28.75 321.627 27.5167 321.127 26.85C320.661 26.1833 319.894 25.85 318.827 25.85C317.561 25.85 316.161 26.65 314.627 28.25V45H307.277ZM361.248 45.6C358.882 45.6 356.748 45.0833 354.848 44.05C352.948 43.0167 351.448 41.5333 350.348 39.6C349.248 37.6667 348.698 35.3333 348.698 32.6C348.698 29.9 349.248 27.5833 350.348 25.65C351.482 23.7167 352.948 22.2333 354.748 21.2C356.548 20.1333 358.432 19.6 360.398 19.6C362.765 19.6 364.732 20.1333 366.298 21.2C367.865 22.2333 369.032 23.65 369.798 25.45C370.565 27.25 370.948 29.2667 370.948 31.5C370.948 32.1333 370.915 32.7667 370.848 33.4C370.782 34 370.715 34.4833 370.648 34.85H354.398L354.298 29.75H364.648C364.648 28.45 364.332 27.3833 363.698 26.55C363.065 25.6833 362.015 25.25 360.548 25.25C359.748 25.25 358.965 25.4667 358.198 25.9C357.432 26.3333 356.798 27.0833 356.298 28.15C355.798 29.2167 355.565 30.7 355.598 32.6C355.632 34.4667 355.965 35.9333 356.598 37C357.265 38.0667 358.098 38.8333 359.098 39.3C360.098 39.7333 361.148 39.95 362.248 39.95C363.215 39.95 364.132 39.8167 364.998 39.55C365.898 39.25 366.782 38.85 367.648 38.35L370.048 42.85C368.815 43.7167 367.415 44.4 365.848 44.9C364.282 45.3667 362.748 45.6 361.248 45.6Z" fill="#DD9F52"/>
</svg>
