<svg width="159" height="30" viewBox="0 0 159 30" fill="none" xmlns="http://www.w3.org/2000/svg">
    <path d="M0 20C0 8.95431 8.95431 0 20 0H88V10C88 21.0457 79.0457 30 68 30H0V20Z" fill="white" />
    <path d="M14.54 21V7.96H22.76V10.44H17.48V13.46H22V15.94H17.48V21H14.54ZM24.7883 21V11.08H27.7283V21H24.7883ZM26.2483 9.62C25.7549 9.62 25.3549 9.48 25.0483 9.2C24.7416 8.92 24.5883 8.54667 24.5883 8.08C24.5883 7.61333 24.7416 7.24 25.0483 6.96C25.3549 6.68 25.7549 6.54 26.2483 6.54C26.7416 6.54 27.1416 6.68 27.4483 6.96C27.7549 7.24 27.9083 7.61333 27.9083 8.08C27.9083 8.54667 27.7549 8.92 27.4483 9.2C27.1416 9.48 26.7416 9.62 26.2483 9.62ZM30.3156 21V11.08H32.7156L32.9156 12.34H32.9956C33.409 11.9267 33.8756 11.5733 34.3956 11.28C34.9156 10.9867 35.509 10.84 36.1756 10.84C37.269 10.84 38.0556 11.2 38.5356 11.92C39.0156 12.6267 39.2556 13.6 39.2556 14.84V21H36.3156V15.22C36.3156 14.5 36.2156 14.0067 36.0156 13.74C35.829 13.4733 35.5223 13.34 35.0956 13.34C34.7223 13.34 34.4023 13.4267 34.1356 13.6C33.869 13.76 33.5756 13.9933 33.2556 14.3V21H30.3156ZM44.2609 21.24C43.6609 21.24 43.1343 21.1067 42.6809 20.84C42.2409 20.5733 41.9009 20.2133 41.6609 19.76C41.4209 19.3067 41.3009 18.8 41.3009 18.24C41.3009 17.1733 41.7409 16.3533 42.6209 15.78C43.5009 15.1933 44.9209 14.8 46.8809 14.6C46.8676 14.3067 46.8009 14.06 46.6809 13.86C46.5743 13.6467 46.4076 13.4867 46.1809 13.38C45.9543 13.26 45.6676 13.2 45.3209 13.2C44.9076 13.2 44.4876 13.2733 44.0609 13.42C43.6343 13.5667 43.1743 13.78 42.6809 14.06L41.6409 12.14C42.0676 11.8733 42.5076 11.6467 42.9609 11.46C43.4143 11.26 43.8809 11.1067 44.3609 11C44.8543 10.8933 45.3609 10.84 45.8809 10.84C46.7343 10.84 47.4476 11.0067 48.0209 11.34C48.6076 11.66 49.0543 12.1533 49.3609 12.82C49.6676 13.4733 49.8209 14.3133 49.8209 15.34V21H47.4209L47.2209 19.98H47.1409C46.7143 20.3533 46.2676 20.66 45.8009 20.9C45.3343 21.1267 44.8209 21.24 44.2609 21.24ZM45.2409 18.94C45.5743 18.94 45.8676 18.8667 46.1209 18.72C46.3743 18.5733 46.6276 18.3733 46.8809 18.12V16.44C46.1876 16.5333 45.6343 16.6533 45.2209 16.8C44.8209 16.9467 44.5343 17.1267 44.3609 17.34C44.2009 17.54 44.1209 17.7667 44.1209 18.02C44.1209 18.3267 44.2209 18.56 44.4209 18.72C44.6343 18.8667 44.9076 18.94 45.2409 18.94ZM52.3078 21V11.08H54.7078L54.9078 12.34H54.9878C55.4011 11.9267 55.8678 11.5733 56.3878 11.28C56.9078 10.9867 57.5011 10.84 58.1678 10.84C59.2611 10.84 60.0478 11.2 60.5278 11.92C61.0078 12.6267 61.2478 13.6 61.2478 14.84V21H58.3078V15.22C58.3078 14.5 58.2078 14.0067 58.0078 13.74C57.8211 13.4733 57.5145 13.34 57.0878 13.34C56.7145 13.34 56.3945 13.4267 56.1278 13.6C55.8611 13.76 55.5678 13.9933 55.2478 14.3V21H52.3078ZM68.1331 21.24C67.1998 21.24 66.3531 21.0333 65.5931 20.62C64.8465 20.2067 64.2531 19.6133 63.8131 18.84C63.3865 18.0667 63.1731 17.1333 63.1731 16.04C63.1731 14.9467 63.4131 14.0133 63.8931 13.24C64.3731 12.4667 65.0065 11.8733 65.7931 11.46C66.5798 11.0467 67.4265 10.84 68.3331 10.84C68.9465 10.84 69.4931 10.94 69.9731 11.14C70.4665 11.3267 70.8865 11.58 71.2331 11.9L69.8531 13.72C69.6798 13.5733 69.4798 13.4533 69.2531 13.36C69.0398 13.2667 68.7931 13.22 68.5131 13.22C68.0465 13.22 67.6398 13.3333 67.2931 13.56C66.9465 13.7867 66.6731 14.1133 66.4731 14.54C66.2731 14.9667 66.1731 15.4667 66.1731 16.04C66.1731 16.6133 66.2731 17.1133 66.4731 17.54C66.6731 17.9667 66.9398 18.2933 67.2731 18.52C67.6198 18.7467 68.0065 18.86 68.4331 18.86C68.7665 18.86 69.0798 18.8 69.3731 18.68C69.6665 18.56 69.9398 18.4067 70.1931 18.22L71.3531 20.02C70.9398 20.3933 70.4531 20.6933 69.8931 20.92C69.3331 21.1333 68.7465 21.24 68.1331 21.24ZM77.0017 21.24C76.0551 21.24 75.2017 21.0333 74.4417 20.62C73.6817 20.2067 73.0817 19.6133 72.6417 18.84C72.2017 18.0667 71.9817 17.1333 71.9817 16.04C71.9817 14.96 72.2017 14.0333 72.6417 13.26C73.0951 12.4867 73.6817 11.8933 74.4017 11.48C75.1217 11.0533 75.8751 10.84 76.6617 10.84C77.6084 10.84 78.3951 11.0533 79.0217 11.48C79.6484 11.8933 80.1151 12.46 80.4217 13.18C80.7284 13.9 80.8817 14.7067 80.8817 15.6C80.8817 15.8533 80.8684 16.1067 80.8417 16.36C80.8151 16.6 80.7884 16.7933 80.7617 16.94H74.2617L74.2217 14.9H78.3617C78.3617 14.38 78.2351 13.9533 77.9817 13.62C77.7284 13.2733 77.3084 13.1 76.7217 13.1C76.4017 13.1 76.0884 13.1867 75.7817 13.36C75.4751 13.5333 75.2217 13.8333 75.0217 14.26C74.8217 14.6867 74.7284 15.28 74.7417 16.04C74.7551 16.7867 74.8884 17.3733 75.1417 17.8C75.4084 18.2267 75.7417 18.5333 76.1417 18.72C76.5417 18.8933 76.9617 18.98 77.4017 18.98C77.7884 18.98 78.1551 18.9267 78.5017 18.82C78.8617 18.7 79.2151 18.54 79.5617 18.34L80.5217 20.14C80.0284 20.4867 79.4684 20.76 78.8417 20.96C78.2151 21.1467 77.6017 21.24 77.0017 21.24Z" fill="#0068A3" />
    <path d="M96.6811 21.24C95.5611 21.24 94.5344 20.9933 93.6011 20.5C92.6811 19.9933 91.9411 19.24 91.3811 18.24C90.8211 17.24 90.5411 16.0133 90.5411 14.56C90.5411 13.48 90.7011 12.52 91.0211 11.68C91.3544 10.8267 91.8078 10.1067 92.3811 9.52C92.9544 8.93333 93.6078 8.48667 94.3411 8.18C95.0878 7.87333 95.8744 7.72 96.7011 7.72C97.5411 7.72 98.2944 7.88667 98.9611 8.22C99.6278 8.55333 100.181 8.95333 100.621 9.42L99.0611 11.2C98.7411 10.8933 98.3944 10.6667 98.0211 10.52C97.6478 10.36 97.2278 10.28 96.7611 10.28C96.1878 10.28 95.6544 10.4533 95.1611 10.8C94.6811 11.1333 94.2944 11.6133 94.0011 12.24C93.7078 12.8667 93.5611 13.6067 93.5611 14.46C93.5611 15.3533 93.7011 16.12 93.9811 16.76C94.2611 17.3867 94.6478 17.8667 95.1411 18.2C95.6478 18.5333 96.2278 18.7 96.8811 18.7C97.3878 18.7 97.8411 18.5933 98.2411 18.38C98.6411 18.1667 98.9944 17.9133 99.3011 17.62L100.781 19.36C100.221 19.9867 99.6011 20.46 98.9211 20.78C98.2411 21.0867 97.4944 21.24 96.6811 21.24ZM102.562 21V6.98H105.502V10.42L105.362 12.2C105.735 11.8667 106.168 11.56 106.662 11.28C107.168 10.9867 107.755 10.84 108.422 10.84C109.515 10.84 110.302 11.2 110.782 11.92C111.262 12.6267 111.502 13.6 111.502 14.84V21H108.562V15.22C108.562 14.5 108.462 14.0067 108.262 13.74C108.075 13.4733 107.768 13.34 107.342 13.34C106.968 13.34 106.648 13.4267 106.382 13.6C106.115 13.76 105.822 13.9933 105.502 14.3V21H102.562ZM113.988 21V11.08H116.388L116.588 12.82H116.668C117.028 12.1533 117.454 11.66 117.948 11.34C118.454 11.0067 118.968 10.84 119.488 10.84C119.768 10.84 120.001 10.86 120.188 10.9C120.374 10.9267 120.534 10.9733 120.668 11.04L120.108 13.54C119.948 13.5 119.794 13.4733 119.648 13.46C119.501 13.4333 119.321 13.42 119.108 13.42C118.734 13.42 118.341 13.5533 117.928 13.82C117.528 14.0867 117.194 14.56 116.928 15.24V21H113.988ZM126.021 21.24C125.181 21.24 124.394 21.04 123.661 20.64C122.928 20.2267 122.328 19.6333 121.861 18.86C121.408 18.0733 121.181 17.1333 121.181 16.04C121.181 14.9467 121.408 14.0133 121.861 13.24C122.328 12.4533 122.928 11.86 123.661 11.46C124.394 11.0467 125.181 10.84 126.021 10.84C126.848 10.84 127.628 11.0467 128.361 11.46C129.094 11.86 129.688 12.4533 130.141 13.24C130.608 14.0133 130.841 14.9467 130.841 16.04C130.841 17.1333 130.608 18.0733 130.141 18.86C129.688 19.6333 129.094 20.2267 128.361 20.64C127.628 21.04 126.848 21.24 126.021 21.24ZM126.021 18.86C126.421 18.86 126.754 18.7467 127.021 18.52C127.301 18.2933 127.508 17.9667 127.641 17.54C127.774 17.1133 127.841 16.6133 127.841 16.04C127.841 15.4667 127.774 14.9667 127.641 14.54C127.508 14.1133 127.301 13.7867 127.021 13.56C126.754 13.3333 126.421 13.22 126.021 13.22C125.608 13.22 125.268 13.3333 125.001 13.56C124.734 13.7867 124.534 14.1133 124.401 14.54C124.268 14.9667 124.201 15.4667 124.201 16.04C124.201 16.6133 124.268 17.1133 124.401 17.54C124.534 17.9667 124.734 18.2933 125.001 18.52C125.268 18.7467 125.608 18.86 126.021 18.86ZM132.855 21V11.08H135.255L135.455 12.36H135.535C135.935 11.9467 136.368 11.5933 136.835 11.3C137.315 10.9933 137.881 10.84 138.535 10.84C139.241 10.84 139.815 10.9867 140.255 11.28C140.695 11.56 141.035 11.9667 141.275 12.5C141.715 12.0467 142.181 11.66 142.675 11.34C143.168 11.0067 143.741 10.84 144.395 10.84C145.475 10.84 146.261 11.2 146.755 11.92C147.248 12.6267 147.495 13.6 147.495 14.84V21H144.555V15.22C144.555 14.5 144.455 14.0067 144.255 13.74C144.068 13.4733 143.761 13.34 143.335 13.34C143.081 13.34 142.815 13.42 142.535 13.58C142.255 13.7267 141.955 13.9667 141.635 14.3V21H138.695V15.22C138.695 14.5 138.595 14.0067 138.395 13.74C138.208 13.4733 137.901 13.34 137.475 13.34C136.968 13.34 136.408 13.66 135.795 14.3V21H132.855ZM154.443 21.24C153.496 21.24 152.643 21.0333 151.883 20.62C151.123 20.2067 150.523 19.6133 150.083 18.84C149.643 18.0667 149.423 17.1333 149.423 16.04C149.423 14.96 149.643 14.0333 150.083 13.26C150.536 12.4867 151.123 11.8933 151.843 11.48C152.563 11.0533 153.316 10.84 154.103 10.84C155.05 10.84 155.836 11.0533 156.463 11.48C157.09 11.8933 157.556 12.46 157.863 13.18C158.17 13.9 158.323 14.7067 158.323 15.6C158.323 15.8533 158.31 16.1067 158.283 16.36C158.256 16.6 158.23 16.7933 158.203 16.94H151.703L151.663 14.9H155.803C155.803 14.38 155.676 13.9533 155.423 13.62C155.17 13.2733 154.75 13.1 154.163 13.1C153.843 13.1 153.53 13.1867 153.223 13.36C152.916 13.5333 152.663 13.8333 152.463 14.26C152.263 14.6867 152.17 15.28 152.183 16.04C152.196 16.7867 152.33 17.3733 152.583 17.8C152.85 18.2267 153.183 18.5333 153.583 18.72C153.983 18.8933 154.403 18.98 154.843 18.98C155.23 18.98 155.596 18.9267 155.943 18.82C156.303 18.7 156.656 18.54 157.003 18.34L157.963 20.14C157.47 20.4867 156.91 20.76 156.283 20.96C155.656 21.1467 155.043 21.24 154.443 21.24Z" fill="white" />
</svg> 