<svg width="228" height="45" viewBox="0 0 228 45" fill="none" xmlns="http://www.w3.org/2000/svg">
    <path d="M0 20C0 8.9543 8.95431 0 20 0H102V25C102 36.0457 93.0457 45 82 45H0V20Z" fill="#DD9F52" />
    <path d="M20.695 33V10.18H25.84V28.66H34.87V33H20.695ZM45.3667 33.42C43.8967 33.42 42.5201 33.07 41.2367 32.37C39.9534 31.6467 38.9034 30.6083 38.0867 29.255C37.2934 27.8783 36.8967 26.2333 36.8967 24.32C36.8967 22.4067 37.2934 20.7733 38.0867 19.42C38.9034 18.0433 39.9534 17.005 41.2367 16.305C42.5201 15.5817 43.8967 15.22 45.3667 15.22C46.8134 15.22 48.1784 15.5817 49.4617 16.305C50.7451 17.005 51.7834 18.0433 52.5767 19.42C53.3934 20.7733 53.8017 22.4067 53.8017 24.32C53.8017 26.2333 53.3934 27.8783 52.5767 29.255C51.7834 30.6083 50.7451 31.6467 49.4617 32.37C48.1784 33.07 46.8134 33.42 45.3667 33.42ZM45.3667 29.255C46.0667 29.255 46.6501 29.0567 47.1167 28.66C47.6067 28.2633 47.9684 27.6917 48.2017 26.945C48.4351 26.1983 48.5517 25.3233 48.5517 24.32C48.5517 23.3167 48.4351 22.4417 48.2017 21.695C47.9684 20.9483 47.6067 20.3767 47.1167 19.98C46.6501 19.5833 46.0667 19.385 45.3667 19.385C44.6434 19.385 44.0484 19.5833 43.5817 19.98C43.1151 20.3767 42.7651 20.9483 42.5317 21.695C42.2984 22.4417 42.1817 23.3167 42.1817 24.32C42.1817 25.3233 42.2984 26.1983 42.5317 26.945C42.7651 27.6917 43.1151 28.2633 43.5817 28.66C44.0484 29.0567 44.6434 29.255 45.3667 29.255ZM61.3248 33.42C60.2748 33.42 59.3531 33.1867 58.5598 32.72C57.7898 32.2533 57.1948 31.6233 56.7748 30.83C56.3548 30.0367 56.1448 29.15 56.1448 28.17C56.1448 26.3033 56.9148 24.8683 58.4548 23.865C59.9948 22.8383 62.4798 22.15 65.9098 21.8C65.8865 21.2867 65.7698 20.855 65.5598 20.505C65.3731 20.1317 65.0815 19.8517 64.6848 19.665C64.2881 19.455 63.7865 19.35 63.1798 19.35C62.4565 19.35 61.7215 19.4783 60.9748 19.735C60.2281 19.9917 59.4231 20.365 58.5598 20.855L56.7398 17.495C57.4865 17.0283 58.2565 16.6317 59.0498 16.305C59.8431 15.955 60.6598 15.6867 61.4998 15.5C62.3631 15.3133 63.2498 15.22 64.1598 15.22C65.6531 15.22 66.9015 15.5117 67.9048 16.095C68.9315 16.655 69.7131 17.5183 70.2498 18.685C70.7865 19.8283 71.0548 21.2983 71.0548 23.095V33H66.8548L66.5048 31.215H66.3648C65.6181 31.8683 64.8365 32.405 64.0198 32.825C63.2031 33.2217 62.3048 33.42 61.3248 33.42ZM63.0398 29.395C63.6231 29.395 64.1365 29.2667 64.5798 29.01C65.0231 28.7533 65.4665 28.4033 65.9098 27.96V25.02C64.6965 25.1833 63.7281 25.3933 63.0048 25.65C62.3048 25.9067 61.8031 26.2217 61.4998 26.595C61.2198 26.945 61.0798 27.3417 61.0798 27.785C61.0798 28.3217 61.2548 28.73 61.6048 29.01C61.9781 29.2667 62.4565 29.395 63.0398 29.395ZM75.4068 33V15.64H79.6068L79.9568 17.845H80.0968C80.8202 17.1217 81.6368 16.5033 82.5468 15.99C83.4568 15.4767 84.4952 15.22 85.6618 15.22C87.5752 15.22 88.9518 15.85 89.7918 17.11C90.6318 18.3467 91.0518 20.05 91.0518 22.22V33H85.9068V22.885C85.9068 21.625 85.7318 20.7617 85.3818 20.295C85.0552 19.8283 84.5185 19.595 83.7718 19.595C83.1185 19.595 82.5585 19.7467 82.0918 20.05C81.6252 20.33 81.1118 20.7383 80.5518 21.275V33H75.4068Z" fill="white" />
    <path d="M119.53 33.42C117.57 33.42 115.773 32.9883 114.14 32.125C112.53 31.2383 111.235 29.92 110.255 28.17C109.275 26.42 108.785 24.2733 108.785 21.73C108.785 19.84 109.065 18.16 109.625 16.69C110.208 15.1967 111.001 13.9367 112.005 12.91C113.008 11.8833 114.151 11.1017 115.435 10.565C116.741 10.0283 118.118 9.76 119.565 9.76C121.035 9.76 122.353 10.0517 123.52 10.635C124.686 11.2183 125.655 11.9183 126.425 12.735L123.695 15.85C123.135 15.3133 122.528 14.9167 121.875 14.66C121.221 14.38 120.486 14.24 119.67 14.24C118.666 14.24 117.733 14.5433 116.87 15.15C116.03 15.7333 115.353 16.5733 114.84 17.67C114.326 18.7667 114.07 20.0617 114.07 21.555C114.07 23.1183 114.315 24.46 114.805 25.58C115.295 26.6767 115.971 27.5167 116.835 28.1C117.721 28.6833 118.736 28.975 119.88 28.975C120.766 28.975 121.56 28.7883 122.26 28.415C122.96 28.0417 123.578 27.5983 124.115 27.085L126.705 30.13C125.725 31.2267 124.64 32.055 123.45 32.615C122.26 33.1517 120.953 33.42 119.53 33.42ZM129.821 33V8.465H134.966V14.485L134.721 17.6C135.374 17.0167 136.133 16.48 136.996 15.99C137.883 15.4767 138.909 15.22 140.076 15.22C141.989 15.22 143.366 15.85 144.206 17.11C145.046 18.3467 145.466 20.05 145.466 22.22V33H140.321V22.885C140.321 21.625 140.146 20.7617 139.796 20.295C139.469 19.8283 138.933 19.595 138.186 19.595C137.533 19.595 136.973 19.7467 136.506 20.05C136.039 20.33 135.526 20.7383 134.966 21.275V33H129.821ZM149.816 33V15.64H154.016L154.366 18.685H154.506C155.136 17.5183 155.883 16.655 156.746 16.095C157.633 15.5117 158.531 15.22 159.441 15.22C159.931 15.22 160.339 15.255 160.666 15.325C160.993 15.3717 161.273 15.4533 161.506 15.57L160.526 19.945C160.246 19.875 159.978 19.8283 159.721 19.805C159.464 19.7583 159.149 19.735 158.776 19.735C158.123 19.735 157.434 19.9683 156.711 20.435C156.011 20.9017 155.428 21.73 154.961 22.92V33H149.816ZM170.875 33.42C169.405 33.42 168.028 33.07 166.745 32.37C165.461 31.6467 164.411 30.6083 163.595 29.255C162.801 27.8783 162.405 26.2333 162.405 24.32C162.405 22.4067 162.801 20.7733 163.595 19.42C164.411 18.0433 165.461 17.005 166.745 16.305C168.028 15.5817 169.405 15.22 170.875 15.22C172.321 15.22 173.686 15.5817 174.97 16.305C176.253 17.005 177.291 18.0433 178.085 19.42C178.901 20.7733 179.31 22.4067 179.31 24.32C179.31 26.2333 178.901 27.8783 178.085 29.255C177.291 30.6083 176.253 31.6467 174.97 32.37C173.686 33.07 172.321 33.42 170.875 33.42ZM170.875 29.255C171.575 29.255 172.158 29.0567 172.625 28.66C173.115 28.2633 173.476 27.6917 173.71 26.945C173.943 26.1983 174.06 25.3233 174.06 24.32C174.06 23.3167 173.943 22.4417 173.71 21.695C173.476 20.9483 173.115 20.3767 172.625 19.98C172.158 19.5833 171.575 19.385 170.875 19.385C170.151 19.385 169.556 19.5833 169.09 19.98C168.623 20.3767 168.273 20.9483 168.04 21.695C167.806 22.4417 167.69 23.3167 167.69 24.32C167.69 25.3233 167.806 26.1983 168.04 26.945C168.273 27.6917 168.623 28.2633 169.09 28.66C169.556 29.0567 170.151 29.255 170.875 29.255ZM182.834 33V15.64H187.034L187.384 17.88H187.524C188.224 17.1567 188.982 16.5383 189.799 16.025C190.639 15.4883 191.63 15.22 192.774 15.22C194.01 15.22 195.014 15.4767 195.784 15.99C196.554 16.48 197.149 17.1917 197.569 18.125C198.339 17.3317 199.155 16.655 200.019 16.095C200.882 15.5117 201.885 15.22 203.029 15.22C204.919 15.22 206.295 15.85 207.159 17.11C208.022 18.3467 208.454 20.05 208.454 22.22V33H203.309V22.885C203.309 21.625 203.134 20.7617 202.784 20.295C202.457 19.8283 201.92 19.595 201.174 19.595C200.73 19.595 200.264 19.735 199.774 20.015C199.284 20.2717 198.759 20.6917 198.199 21.275V33H193.054V22.885C193.054 21.625 192.879 20.7617 192.529 20.295C192.202 19.8283 191.665 19.595 190.919 19.595C190.032 19.595 189.052 20.155 187.979 21.275V33H182.834ZM220.613 33.42C218.957 33.42 217.463 33.0583 216.133 32.335C214.803 31.6117 213.753 30.5733 212.983 29.22C212.213 27.8667 211.828 26.2333 211.828 24.32C211.828 22.43 212.213 20.8083 212.983 19.455C213.777 18.1017 214.803 17.0633 216.063 16.34C217.323 15.5933 218.642 15.22 220.018 15.22C221.675 15.22 223.052 15.5933 224.148 16.34C225.245 17.0633 226.062 18.055 226.598 19.315C227.135 20.575 227.403 21.9867 227.403 23.55C227.403 23.9933 227.38 24.4367 227.333 24.88C227.287 25.3 227.24 25.6383 227.193 25.895H215.818L215.748 22.325H222.993C222.993 21.415 222.772 20.6683 222.328 20.085C221.885 19.4783 221.15 19.175 220.123 19.175C219.563 19.175 219.015 19.3267 218.478 19.63C217.942 19.9333 217.498 20.4583 217.148 21.205C216.798 21.9517 216.635 22.99 216.658 24.32C216.682 25.6267 216.915 26.6533 217.358 27.4C217.825 28.1467 218.408 28.6833 219.108 29.01C219.808 29.3133 220.543 29.465 221.313 29.465C221.99 29.465 222.632 29.3717 223.238 29.185C223.868 28.975 224.487 28.695 225.093 28.345L226.773 31.495C225.91 32.1017 224.93 32.58 223.833 32.93C222.737 33.2567 221.663 33.42 220.613 33.42Z" fill="#DD9F52" />
</svg>
    