<svg width="376" height="45" viewBox="0 0 376 58" fill="none" xmlns="http://www.w3.org/2000/svg">
<path d="M0 20C0 8.95431 8.95431 0 20 0H200V38C200 49.0457 191.046 58 180 58H0V20Z" fill="#404040"/>
<path d="M35.8 45.6C33.6333 45.6 31.5 45.2167 29.4 44.45C27.3 43.65 25.4167 42.45 23.75 40.85L27.65 36.05C28.8167 37.05 30.1333 37.8333 31.6 38.4C33.1 38.9667 34.5667 39.25 36 39.25C37.5333 39.25 38.6667 38.9667 39.4 38.4C40.1667 37.8333 40.55 37.0667 40.55 36.1C40.55 35.4 40.35 34.85 39.95 34.45C39.5833 34.0167 39.05 33.6333 38.35 33.3C37.65 32.9667 36.8167 32.6 35.85 32.2L31.6 30.45C30.5 29.95 29.4333 29.3167 28.4 28.55C27.4 27.75 26.5833 26.7833 25.95 25.65C25.35 24.4833 25.05 23.1 25.05 21.5C25.05 19.7 25.5333 18.0833 26.5 16.65C27.5 15.1833 28.8667 14.0167 30.6 13.15C32.3667 12.25 34.3833 11.8 36.65 11.8C38.6167 11.8 40.5167 12.15 42.35 12.85C44.1833 13.55 45.7833 14.5667 47.15 15.9L43.25 20.65C42.1833 19.85 41.0833 19.2333 39.95 18.8C38.85 18.3667 37.75 18.15 36.65 18.15C35.3833 18.15 34.3667 18.4167 33.6 18.95C32.8667 19.45 32.5 20.1667 32.5 21.1C32.5 21.7333 32.7167 22.2833 33.15 22.75C33.5833 23.1833 34.1833 23.5667 34.95 23.9C35.7167 24.2 36.55 24.55 37.45 24.95L41.65 26.65C42.9833 27.1833 44.1167 27.85 45.05 28.65C46.0167 29.45 46.7667 30.4167 47.3 31.55C47.8333 32.65 48.1 33.9667 48.1 35.5C48.1 37.3 47.6167 38.9667 46.65 40.5C45.6833 42.0333 44.2833 43.2667 42.45 44.2C40.6167 45.1333 38.4 45.6 35.8 45.6ZM63.6832 45.6C61.5832 45.6 59.6165 45.1 57.7832 44.1C55.9499 43.0667 54.4499 41.5833 53.2832 39.65C52.1499 37.6833 51.5832 35.3333 51.5832 32.6C51.5832 29.8667 52.1499 27.5333 53.2832 25.6C54.4499 23.6333 55.9499 22.15 57.7832 21.15C59.6165 20.1167 61.5832 19.6 63.6832 19.6C65.7499 19.6 67.6999 20.1167 69.5332 21.15C71.3665 22.15 72.8499 23.6333 73.9832 25.6C75.1499 27.5333 75.7332 29.8667 75.7332 32.6C75.7332 35.3333 75.1499 37.6833 73.9832 39.65C72.8499 41.5833 71.3665 43.0667 69.5332 44.1C67.6999 45.1 65.7499 45.6 63.6832 45.6ZM63.6832 39.65C64.6832 39.65 65.5165 39.3667 66.1832 38.8C66.8832 38.2333 67.3999 37.4167 67.7332 36.35C68.0665 35.2833 68.2332 34.0333 68.2332 32.6C68.2332 31.1667 68.0665 29.9167 67.7332 28.85C67.3999 27.7833 66.8832 26.9667 66.1832 26.4C65.5165 25.8333 64.6832 25.55 63.6832 25.55C62.6499 25.55 61.7999 25.8333 61.1332 26.4C60.4665 26.9667 59.9665 27.7833 59.6332 28.85C59.2999 29.9167 59.1332 31.1667 59.1332 32.6C59.1332 34.0333 59.2999 35.2833 59.6332 36.35C59.9665 37.4167 60.4665 38.2333 61.1332 38.8C61.7999 39.3667 62.6499 39.65 63.6832 39.65ZM87.5176 45.55C85.8509 45.55 84.5176 45.2167 83.5176 44.55C82.5509 43.85 81.8509 42.8833 81.4176 41.65C80.9842 40.3833 80.7676 38.9167 80.7676 37.25V10H88.1176V37.55C88.1176 38.35 88.2509 38.9 88.5176 39.2C88.8176 39.4667 89.1342 39.6 89.4676 39.6C89.6009 39.6 89.7176 39.6 89.8176 39.6C89.9509 39.5667 90.1176 39.5333 90.3176 39.5L91.2176 44.95C90.8176 45.1167 90.3009 45.25 89.6676 45.35C89.0676 45.4833 88.3509 45.55 87.5176 45.55ZM95.0742 45V20.2H102.424V45H95.0742ZM98.7242 16.55C97.4909 16.55 96.4909 16.2 95.7242 15.5C94.9576 14.8 94.5742 13.8667 94.5742 12.7C94.5742 11.5333 94.9576 10.6 95.7242 9.9C96.4909 9.2 97.4909 8.85 98.7242 8.85C99.9576 8.85 100.958 9.2 101.724 9.9C102.491 10.6 102.874 11.5333 102.874 12.7C102.874 13.8667 102.491 14.8 101.724 15.5C100.958 16.2 99.9576 16.55 98.7242 16.55ZM117.743 45.6C114.676 45.6 112.209 44.45 110.343 42.15C108.509 39.8167 107.593 36.6333 107.593 32.6C107.593 29.9 108.076 27.5833 109.043 25.65C110.043 23.7167 111.326 22.2333 112.893 21.2C114.493 20.1333 116.159 19.6 117.893 19.6C119.259 19.6 120.409 19.8333 121.343 20.3C122.276 20.7667 123.159 21.4 123.993 22.2L123.693 18.4V9.95H131.043V45H125.043L124.543 42.55H124.343C123.476 43.4167 122.459 44.15 121.293 44.75C120.126 45.3167 118.943 45.6 117.743 45.6ZM119.643 39.6C120.443 39.6 121.176 39.4333 121.843 39.1C122.509 38.7667 123.126 38.1833 123.693 37.35V27.2C123.059 26.6 122.393 26.1833 121.693 25.95C120.993 25.7167 120.293 25.6 119.593 25.6C118.793 25.6 118.059 25.85 117.393 26.35C116.726 26.85 116.176 27.6167 115.743 28.65C115.343 29.65 115.143 30.9333 115.143 32.5C115.143 34.9333 115.543 36.7333 116.343 37.9C117.143 39.0333 118.243 39.6 119.643 39.6ZM137.555 45V20.2H144.905V45H137.555ZM141.205 16.55C139.971 16.55 138.971 16.2 138.205 15.5C137.438 14.8 137.055 13.8667 137.055 12.7C137.055 11.5333 137.438 10.6 138.205 9.9C138.971 9.2 139.971 8.85 141.205 8.85C142.438 8.85 143.438 9.2 144.205 9.9C144.971 10.6 145.355 11.5333 145.355 12.7C145.355 13.8667 144.971 14.8 144.205 15.5C143.438 16.2 142.438 16.55 141.205 16.55ZM160.923 45.55C157.856 45.55 155.656 44.6667 154.323 42.9C152.99 41.1 152.323 38.7833 152.323 35.95V25.95H148.973V20.5L152.773 20.2L153.623 12.6H159.723V20.2H165.673V25.95H159.723V35.85C159.723 37.25 160.006 38.2667 160.573 38.9C161.173 39.5 161.956 39.8 162.923 39.8C163.323 39.8 163.723 39.7667 164.123 39.7C164.523 39.6333 164.906 39.5333 165.273 39.4L166.473 44.55C165.84 44.8167 165.04 45.05 164.073 45.25C163.14 45.45 162.09 45.55 160.923 45.55ZM173.264 54.7C172.53 54.7 171.88 54.65 171.314 54.55C170.78 54.45 170.264 54.3 169.764 54.1L171.064 48.7C171.43 48.8 171.73 48.85 171.964 48.85C172.23 48.8833 172.48 48.9 172.714 48.9C173.947 48.9 174.897 48.5833 175.564 47.95C176.264 47.35 176.764 46.5833 177.064 45.65L177.414 44.35L167.864 20.2H175.264L178.814 30.85C179.18 31.9833 179.514 33.1333 179.814 34.3C180.114 35.4667 180.43 36.6667 180.764 37.9H180.964C181.23 36.7333 181.497 35.5667 181.764 34.4C182.064 33.2 182.364 32.0167 182.664 30.85L185.664 20.2H192.714L184.114 45.25C183.314 47.3167 182.447 49.05 181.514 50.45C180.614 51.85 179.497 52.9 178.164 53.6C176.864 54.3333 175.23 54.7 173.264 54.7Z" fill="white"/>
<path d="M220.998 45.6C218.198 45.6 215.631 44.9833 213.298 43.75C210.998 42.4833 209.148 40.6 207.748 38.1C206.348 35.6 205.648 32.5333 205.648 28.9C205.648 26.2 206.048 23.8 206.848 21.7C207.681 19.5667 208.814 17.7667 210.248 16.3C211.681 14.8333 213.314 13.7167 215.148 12.95C217.014 12.1833 218.981 11.8 221.048 11.8C223.148 11.8 225.031 12.2167 226.698 13.05C228.364 13.8833 229.748 14.8833 230.848 16.05L226.948 20.5C226.148 19.7333 225.281 19.1667 224.348 18.8C223.414 18.4 222.364 18.2 221.198 18.2C219.764 18.2 218.431 18.6333 217.198 19.5C215.998 20.3333 215.031 21.5333 214.298 23.1C213.564 24.6667 213.198 26.5167 213.198 28.65C213.198 30.8833 213.548 32.8 214.248 34.4C214.948 35.9667 215.914 37.1667 217.148 38C218.414 38.8333 219.864 39.25 221.498 39.25C222.764 39.25 223.898 38.9833 224.898 38.45C225.898 37.9167 226.781 37.2833 227.548 36.55L231.248 40.9C229.848 42.4667 228.298 43.65 226.598 44.45C224.898 45.2167 223.031 45.6 220.998 45.6ZM235.699 45V9.95H243.049V18.55L242.699 23C243.633 22.1667 244.716 21.4 245.949 20.7C247.216 19.9667 248.683 19.6 250.349 19.6C253.083 19.6 255.049 20.5 256.249 22.3C257.449 24.0667 258.049 26.5 258.049 29.6V45H250.699V30.55C250.699 28.75 250.449 27.5167 249.949 26.85C249.483 26.1833 248.716 25.85 247.649 25.85C246.716 25.85 245.916 26.0667 245.249 26.5C244.583 26.9 243.849 27.4833 243.049 28.25V45H235.699ZM264.264 45V20.2H270.264L270.764 24.55H270.964C271.864 22.8833 272.93 21.65 274.164 20.85C275.43 20.0167 276.714 19.6 278.014 19.6C278.714 19.6 279.297 19.65 279.764 19.75C280.23 19.8167 280.63 19.9333 280.964 20.1L279.564 26.35C279.164 26.25 278.78 26.1833 278.414 26.15C278.047 26.0833 277.597 26.05 277.064 26.05C276.13 26.05 275.147 26.3833 274.114 27.05C273.114 27.7167 272.28 28.9 271.614 30.6V45H264.264ZM294.347 45.6C292.247 45.6 290.281 45.1 288.447 44.1C286.614 43.0667 285.114 41.5833 283.947 39.65C282.814 37.6833 282.247 35.3333 282.247 32.6C282.247 29.8667 282.814 27.5333 283.947 25.6C285.114 23.6333 286.614 22.15 288.447 21.15C290.281 20.1167 292.247 19.6 294.347 19.6C296.414 19.6 298.364 20.1167 300.197 21.15C302.031 22.15 303.514 23.6333 304.647 25.6C305.814 27.5333 306.397 29.8667 306.397 32.6C306.397 35.3333 305.814 37.6833 304.647 39.65C303.514 41.5833 302.031 43.0667 300.197 44.1C298.364 45.1 296.414 45.6 294.347 45.6ZM294.347 39.65C295.347 39.65 296.181 39.3667 296.847 38.8C297.547 38.2333 298.064 37.4167 298.397 36.35C298.731 35.2833 298.897 34.0333 298.897 32.6C298.897 31.1667 298.731 29.9167 298.397 28.85C298.064 27.7833 297.547 26.9667 296.847 26.4C296.181 25.8333 295.347 25.55 294.347 25.55C293.314 25.55 292.464 25.8333 291.797 26.4C291.131 26.9667 290.631 27.7833 290.297 28.85C289.964 29.9167 289.797 31.1667 289.797 32.6C289.797 34.0333 289.964 35.2833 290.297 36.35C290.631 37.4167 291.131 38.2333 291.797 38.8C292.464 39.3667 293.314 39.65 294.347 39.65ZM311.432 45V20.2H317.432L317.932 23.4H318.132C319.132 22.3667 320.215 21.4833 321.382 20.75C322.582 19.9833 323.998 19.6 325.632 19.6C327.398 19.6 328.832 19.9667 329.932 20.7C331.032 21.4 331.882 22.4167 332.482 23.75C333.582 22.6167 334.748 21.65 335.982 20.85C337.215 20.0167 338.648 19.6 340.282 19.6C342.982 19.6 344.948 20.5 346.182 22.3C347.415 24.0667 348.032 26.5 348.032 29.6V45H340.682V30.55C340.682 28.75 340.432 27.5167 339.932 26.85C339.465 26.1833 338.698 25.85 337.632 25.85C336.998 25.85 336.332 26.05 335.632 26.45C334.932 26.8167 334.182 27.4167 333.382 28.25V45H326.032V30.55C326.032 28.75 325.782 27.5167 325.282 26.85C324.815 26.1833 324.048 25.85 322.982 25.85C321.715 25.85 320.315 26.65 318.782 28.25V45H311.432ZM365.403 45.6C363.036 45.6 360.903 45.0833 359.003 44.05C357.103 43.0167 355.603 41.5333 354.503 39.6C353.403 37.6667 352.853 35.3333 352.853 32.6C352.853 29.9 353.403 27.5833 354.503 25.65C355.636 23.7167 357.103 22.2333 358.903 21.2C360.703 20.1333 362.586 19.6 364.553 19.6C366.919 19.6 368.886 20.1333 370.453 21.2C372.019 22.2333 373.186 23.65 373.953 25.45C374.719 27.25 375.103 29.2667 375.103 31.5C375.103 32.1333 375.069 32.7667 375.003 33.4C374.936 34 374.869 34.4833 374.803 34.85H358.553L358.453 29.75H368.803C368.803 28.45 368.486 27.3833 367.853 26.55C367.219 25.6833 366.169 25.25 364.703 25.25C363.903 25.25 363.119 25.4667 362.353 25.9C361.586 26.3333 360.953 27.0833 360.453 28.15C359.953 29.2167 359.719 30.7 359.753 32.6C359.786 34.4667 360.119 35.9333 360.753 37C361.419 38.0667 362.253 38.8333 363.253 39.3C364.253 39.7333 365.303 39.95 366.403 39.95C367.369 39.95 368.286 39.8167 369.153 39.55C370.053 39.25 370.936 38.85 371.803 38.35L374.203 42.85C372.969 43.7167 371.569 44.4 370.003 44.9C368.436 45.3667 366.903 45.6 365.403 45.6Z" fill="#404040"/>
</svg>
